<svg width="895" height="572" viewBox="0 0 895 572" fill="none" xmlns="http://www.w3.org/2000/svg">
<path d="M584 0.5C540.333 48 454.8 170 462 278" stroke="url(#paint0_linear_1_3)"/>
<path d="M522.5 17.5C478.833 65 445.8 179.5 453 287.5" stroke="url(#paint1_linear_1_3)"/>
<path d="M471 16C452 82 436.5 253.5 436.5 307.5" stroke="url(#paint2_linear_1_3)"/>
<path d="M303.5 10C347.167 57.5 428.2 202.5 421 310.5" stroke="url(#paint3_linear_1_3)"/>
<path d="M365 10C408.667 57.5 437.2 212 430 320" stroke="url(#paint4_linear_1_3)"/>
<path d="M414 13C433.253 85.3321 435 266.819 435 326" stroke="url(#paint5_linear_1_3)"/>
<ellipse cx="452" cy="407" rx="271" ry="165" fill="url(#paint6_radial_1_3)"/>
<circle cx="440" cy="356" r="90" fill="url(#paint7_linear_1_3)"/>
<path d="M880.5 409.5C880.5 427.832 868.33 445.393 846.091 461.448C823.862 477.494 791.665 491.966 751.835 504.128C672.179 528.449 562.105 543.5 440.5 543.5C318.895 543.5 208.821 528.449 129.165 504.128C89.3346 491.966 57.1376 477.494 34.9093 461.448C12.6695 445.393 0.5 427.832 0.5 409.5C0.5 391.168 12.6695 373.607 34.9093 357.552C57.1376 341.506 89.3346 327.034 129.165 314.872C208.821 290.551 318.895 275.5 440.5 275.5C562.105 275.5 672.179 290.551 751.835 314.872C791.665 327.034 823.862 341.506 846.091 357.552C868.33 373.607 880.5 391.168 880.5 409.5Z" stroke="url(#paint8_linear_1_3)"/>
<path d="M826.5 409.5C826.5 427.863 815.931 445.427 796.661 461.469C777.393 477.509 749.482 491.975 714.949 504.134C645.886 528.451 550.445 543.5 445 543.5C339.555 543.5 244.114 528.451 175.051 504.134C140.518 491.975 112.607 477.509 93.3393 461.469C74.0687 445.427 63.5 427.863 63.5 409.5C63.5 391.137 74.0687 373.573 93.3393 357.531C112.607 341.491 140.518 327.025 175.051 314.866C244.114 290.549 339.555 275.5 445 275.5C550.445 275.5 645.886 290.549 714.949 314.866C749.482 327.025 777.393 341.491 796.661 357.531C815.931 373.573 826.5 391.137 826.5 409.5Z" stroke="url(#paint9_linear_1_3)"/>
<path d="M802.5 409.5C802.5 427.882 792.877 445.45 775.354 461.485C757.831 477.52 732.448 491.983 701.039 504.14C638.225 528.452 551.414 543.5 455.5 543.5C359.586 543.5 272.775 528.452 209.961 504.14C178.552 491.983 153.169 477.52 135.646 461.485C118.123 445.45 108.5 427.882 108.5 409.5C108.5 391.118 118.123 373.55 135.646 357.515C153.169 341.48 178.552 327.017 209.961 314.86C272.775 290.548 359.586 275.5 455.5 275.5C551.414 275.5 638.225 290.548 701.039 314.86C732.448 327.017 757.831 341.48 775.354 357.515C792.877 373.55 802.5 391.118 802.5 409.5Z" stroke="url(#paint10_linear_1_3)"/>
<path d="M597.5 340.5C597.5 416.114 529.275 477.5 445 477.5C360.725 477.5 292.5 416.114 292.5 340.5C292.5 264.886 360.725 203.5 445 203.5C529.275 203.5 597.5 264.886 597.5 340.5Z" stroke="url(#paint11_linear_1_3)"/>
<path d="M591.5 376C591.5 398.38 575.177 418.746 548.555 433.546C521.95 448.336 485.162 457.5 444.5 457.5C403.838 457.5 367.05 448.336 340.445 433.546C313.823 418.746 297.5 398.38 297.5 376C297.5 353.62 313.823 333.254 340.445 318.454C367.05 303.664 403.838 294.5 444.5 294.5C485.162 294.5 521.95 303.664 548.555 318.454C575.177 333.254 591.5 353.62 591.5 376Z" stroke="url(#paint12_linear_1_3)"/>
<path d="M853.093 363.749C853.093 362.196 851.426 360.725 848.87 359.813C849.46 356.776 849.198 354.358 848.043 353.584C847.763 353.401 847.446 353.309 847.125 353.317V354.382C847.314 354.382 847.465 354.426 847.593 354.507C848.149 354.88 848.391 356.297 848.203 358.122C848.158 358.571 848.084 359.044 847.994 359.526C847.138 359.285 846.269 359.112 845.393 359.006C844.872 358.166 844.302 357.368 843.69 356.617C845.025 355.17 846.278 354.378 847.131 354.378V353.312C846.004 353.312 844.529 354.249 843.038 355.872C841.548 354.26 840.073 353.332 838.947 353.332V354.396C839.795 354.396 841.052 355.185 842.388 356.622C841.814 357.325 841.241 358.122 840.696 359.006C839.818 359.11 838.948 359.286 838.091 359.531C838.001 359.074 837.929 358.612 837.878 358.146C837.685 356.321 837.923 354.903 838.476 354.526C838.598 354.44 838.758 354.401 838.947 354.401V353.337C838.603 353.337 838.291 353.423 838.022 353.603C836.87 354.378 836.613 356.789 837.206 359.818C834.659 360.736 833 362.201 833 363.749C833 365.301 834.667 366.772 837.223 367.683C836.633 370.722 836.895 373.139 838.05 373.912C838.316 374.094 838.628 374.18 838.971 374.18C840.098 374.18 841.572 373.244 843.063 371.62C844.554 373.234 846.028 374.16 847.155 374.16C847.478 374.168 847.797 374.076 848.08 373.893C849.231 373.12 849.489 370.708 848.895 367.679C851.435 366.767 853.093 365.296 853.093 363.749ZM847.76 360.563C847.601 361.201 847.417 361.831 847.208 362.449C846.865 361.673 846.489 360.917 846.081 360.185C846.663 360.286 847.224 360.41 847.761 360.563H847.76ZM845.885 365.65C845.578 366.274 845.249 366.883 844.898 367.474C843.669 367.601 842.433 367.602 841.204 367.479C840.499 366.305 839.882 365.062 839.361 363.763C839.882 362.462 840.495 361.214 841.196 360.034C842.425 359.907 843.66 359.905 844.889 360.028C845.229 360.596 845.562 361.203 845.881 361.844C846.192 362.469 846.475 363.103 846.733 363.744C846.472 364.392 846.189 365.028 845.885 365.65V365.65ZM847.208 365.029C847.429 365.668 847.618 366.309 847.773 366.93C847.237 367.083 846.671 367.212 846.086 367.311C846.492 366.573 846.866 365.811 847.208 365.029V365.029ZM843.055 370.125C842.674 369.666 842.293 369.156 841.916 368.596C842.285 368.616 842.661 368.63 843.042 368.63C843.428 368.63 843.808 368.621 844.181 368.596C843.813 369.156 843.432 369.666 843.055 370.125ZM840.007 367.311C839.443 367.216 838.883 367.09 838.328 366.934C838.48 366.318 838.668 365.683 838.881 365.048C839.049 365.429 839.226 365.812 839.418 366.194C839.611 366.576 839.807 366.949 840.007 367.311ZM843.034 357.372C843.415 357.831 843.796 358.342 844.173 358.901C843.804 358.882 843.428 358.867 843.047 358.867C842.661 358.867 842.281 358.877 841.908 358.901C842.276 358.342 842.657 357.831 843.034 357.372ZM840.003 360.186C839.597 360.923 839.223 361.683 838.881 362.464C838.666 361.841 838.478 361.207 838.316 360.563C838.852 360.414 839.418 360.286 840.003 360.186ZM836.297 366.165C834.847 365.445 833.909 364.498 833.909 363.749C833.909 362.999 834.847 362.048 836.297 361.332C836.649 361.155 837.034 360.997 837.431 360.85C837.665 361.785 837.972 362.76 838.352 363.758C837.993 364.698 837.69 365.665 837.444 366.652C837.055 366.512 836.672 366.349 836.297 366.165V366.165ZM838.5 372.99C837.944 372.619 837.702 371.199 837.89 369.375C837.935 368.926 838.009 368.453 838.099 367.97C838.902 368.2 839.778 368.377 840.7 368.492C841.222 369.331 841.791 370.129 842.404 370.88C841.068 372.327 839.815 373.12 838.963 373.12C838.802 373.122 838.643 373.077 838.5 372.991V372.99ZM848.216 369.351C848.408 371.176 848.17 372.594 847.617 372.971C847.495 373.057 847.335 373.095 847.146 373.095C846.298 373.095 845.041 372.307 843.705 370.869C844.316 370.121 844.881 369.325 845.397 368.487C846.275 368.382 847.145 368.206 848.002 367.962C848.097 368.444 848.169 368.907 848.216 369.351V369.351ZM849.792 366.165C849.44 366.342 849.055 366.5 848.658 366.647C848.407 365.655 848.1 364.683 847.737 363.739C848.113 362.746 848.416 361.776 848.645 360.845C849.035 360.986 849.419 361.148 849.796 361.332C851.246 362.053 852.184 362.999 852.184 363.749C852.18 364.498 851.242 365.449 849.792 366.165V366.165Z" fill="url(#paint13_linear_1_3)"/>
<path d="M843.042 365.931C843.539 365.931 844.015 365.701 844.366 365.292C844.717 364.882 844.914 364.327 844.914 363.748C844.914 363.169 844.717 362.614 844.366 362.204C844.015 361.795 843.539 361.565 843.042 361.565C842.546 361.565 842.07 361.795 841.719 362.204C841.368 362.614 841.17 363.169 841.17 363.748C841.17 364.327 841.368 364.882 841.719 365.292C842.07 365.701 842.546 365.931 843.042 365.931V365.931Z" fill="url(#paint14_linear_1_3)"/>
<path d="M782.607 322.991H772.393C771.624 322.991 771 323.719 771 324.616V336.527C771 337.424 771.624 338.152 772.393 338.152H782.607C783.376 338.152 784 337.424 784 336.527V324.616C784 323.719 783.376 322.991 782.607 322.991ZM778.075 334.815C778.075 336.29 777.332 336.964 776.249 336.964C775.271 336.964 774.706 336.375 774.415 335.661L775.411 334.96C775.602 335.356 775.776 335.691 776.197 335.691C776.598 335.691 776.853 335.509 776.853 334.795V329.952H778.075V334.815ZM780.965 336.964C779.83 336.964 779.096 336.334 778.739 335.509L779.734 334.839C779.996 335.336 780.338 335.705 780.939 335.705C781.444 335.705 781.769 335.411 781.769 335.001C781.769 334.514 781.438 334.341 780.878 334.054L780.573 333.901C779.691 333.465 779.108 332.913 779.108 331.752C779.108 330.683 779.807 329.871 780.895 329.871C781.673 329.871 782.23 330.186 782.63 331.011L781.679 331.722C781.47 331.285 781.243 331.113 780.892 331.113C780.535 331.113 780.309 331.377 780.309 331.722C780.309 332.148 780.535 332.321 781.06 332.588L781.365 332.741C782.404 333.258 782.987 333.79 782.987 334.981C782.987 336.26 782.123 336.964 780.965 336.964Z" fill="url(#paint15_linear_1_3)"/>
<path d="M886.996 427.948C886.756 427.948 886.513 427.869 886.302 427.72L884.092 426.115C883.763 425.886 883.924 425.807 884.031 425.763C884.472 425.574 884.561 425.535 885.03 425.205C885.081 425.17 885.145 425.183 885.195 425.222L886.893 426.458C886.953 426.502 887.039 426.502 887.097 426.458L893.711 421.771C893.772 421.727 893.811 421.639 893.811 421.551V412.177C893.811 412.085 893.772 412.001 893.707 411.953L887.097 407.271C887.036 407.227 886.953 407.227 886.893 407.271L880.286 411.957C880.221 412.001 880.182 412.089 880.182 412.182V421.551C880.182 421.639 880.221 421.727 880.286 421.767L882.098 423.05C883.082 423.653 883.684 422.945 883.684 422.228V412.978C883.684 412.846 883.77 412.744 883.877 412.744H884.715C884.819 412.744 884.909 412.846 884.909 412.978V422.233C884.909 423.842 884.192 424.765 882.95 424.765C882.567 424.765 882.266 424.765 881.428 424.255L879.695 423.028C879.265 422.725 879 422.158 879 421.547V412.177C879 411.571 879.265 410.999 879.695 410.696L886.302 406.009C886.721 405.718 887.276 405.718 887.691 406.009L894.305 410.7C894.735 411.003 895 411.571 895 412.182V421.551C895 422.158 894.735 422.725 894.305 423.033L887.691 427.72C887.48 427.869 887.24 427.948 886.996 427.948ZM892.336 418.711C892.336 416.957 891.369 416.491 889.338 416.161C887.283 415.827 887.075 415.655 887.075 415.066C887.075 414.578 887.251 413.927 888.773 413.927C890.13 413.927 890.631 414.288 890.839 415.413C890.857 415.519 890.936 415.598 891.025 415.598H891.885C891.938 415.598 891.988 415.572 892.024 415.523C892.06 415.475 892.078 415.409 892.074 415.343C891.942 413.404 890.893 412.503 888.773 412.503C886.885 412.503 885.761 413.479 885.761 415.119C885.761 416.895 886.882 417.387 888.69 417.607C890.857 417.867 891.025 418.258 891.025 418.781C891.025 419.687 890.431 420.074 889.038 420.074C887.286 420.074 886.903 419.533 886.774 418.465C886.76 418.35 886.681 418.267 886.585 418.267H885.729C885.621 418.267 885.539 418.372 885.539 418.5C885.539 419.867 886.144 421.498 889.041 421.498C891.132 421.494 892.336 420.478 892.336 418.711V418.711Z" fill="url(#paint16_linear_1_3)"/>
<path fill-rule="evenodd" clip-rule="evenodd" d="M769.035 493.254C767.353 493.254 766 494.9 766 496.916C766 498.142 766.501 499.231 767.27 499.896C766.873 500.242 766.552 500.692 766.331 501.209C766.111 501.727 765.997 502.297 766 502.875C766 504.101 766.501 505.189 767.27 505.854C766.873 506.201 766.552 506.65 766.331 507.168C766.111 507.685 765.997 508.256 766 508.833C766 510.85 767.353 512.496 769.035 512.496C770.717 512.496 772.071 510.85 772.071 508.833V505.737C772.602 506.254 773.272 506.537 773.965 506.538C775.647 506.537 777 504.891 777 502.875C777.003 502.297 776.889 501.727 776.669 501.209C776.448 500.692 776.127 500.242 775.73 499.896C776.127 499.549 776.448 499.099 776.669 498.582C776.889 498.064 777.003 497.494 777 496.916C777 494.9 775.647 493.254 773.965 493.254H769.035V493.254ZM767.141 496.916C767.141 495.641 767.994 494.619 769.035 494.619H770.929V499.213H769.035C767.994 499.213 767.141 498.191 767.141 496.916V496.916ZM773.965 499.212H772.071V494.618H773.965C775.006 494.618 775.859 495.641 775.859 496.916C775.859 498.191 775.006 499.212 773.965 499.212ZM767.141 502.875C767.141 501.6 767.995 500.578 769.036 500.578H770.93V505.172H769.035C767.994 505.172 767.141 504.15 767.141 502.875H767.141ZM772.071 502.875C772.071 501.6 772.924 500.578 773.965 500.578C775.007 500.578 775.86 501.599 775.86 502.875C775.86 504.15 775.007 505.172 773.965 505.172C772.924 505.172 772.071 504.15 772.071 502.875H772.071ZM767.141 508.833C767.141 507.559 767.995 506.537 769.036 506.537H770.93V508.833C770.93 510.109 770.078 511.13 769.036 511.13C767.995 511.13 767.141 510.109 767.141 508.833Z" fill="url(#paint17_linear_1_3)"/>
<path d="M837.334 425.615H828.256C827.01 425.615 826 426.793 826 428.246V438.437C826 439.89 827.01 441.068 828.256 441.068H837.334C838.58 441.068 839.591 439.89 839.591 438.437V428.246C839.591 426.793 838.58 425.615 837.334 425.615Z" fill="url(#paint18_linear_1_3)"/>
<path d="M833.144 429.68L831.449 432.944L833.263 436.41C833.275 436.434 833.278 436.463 833.272 436.49C833.269 436.501 833.263 436.504 833.254 436.505L833.244 436.504L833.231 436.504C833.224 436.504 833.217 436.504 833.208 436.506H831.9L831.875 436.506C831.804 436.503 831.753 436.492 831.722 436.431C831.601 436.156 831.48 435.882 831.358 435.607C831.248 435.363 831.136 435.12 831.021 434.879L830.97 434.773C830.832 434.487 830.697 434.2 830.564 433.912H830.555C830.433 434.197 830.307 434.481 830.177 434.762C830.046 435.046 829.917 435.328 829.789 435.607C829.662 435.888 829.531 436.166 829.397 436.442C829.376 436.498 829.34 436.51 829.29 436.512L829.27 436.512H828.021L828.015 436.513L827.997 436.514C827.988 436.515 827.982 436.513 827.98 436.495C827.976 436.469 827.981 436.443 827.993 436.421L829.753 433.05L828.039 429.669C828.021 429.641 828.018 429.618 828.03 429.6C828.037 429.591 828.045 429.584 828.054 429.58C828.064 429.575 828.074 429.573 828.085 429.574H829.37C829.398 429.572 829.426 429.577 829.452 429.59C829.474 429.604 829.493 429.624 829.507 429.648C829.616 429.932 829.738 430.215 829.872 430.499C830.004 430.78 830.139 431.06 830.277 431.339C830.413 431.613 830.539 431.893 830.656 432.179H830.665C830.784 431.893 830.907 431.609 831.034 431.328C831.158 431.052 831.286 430.773 831.417 430.493C831.546 430.217 831.672 429.939 831.795 429.659C831.802 429.633 831.815 429.609 831.832 429.59C831.854 429.576 831.879 429.571 831.905 429.574H833.099C833.11 429.571 833.121 429.572 833.132 429.577C833.142 429.582 833.151 429.591 833.157 429.602C833.162 429.614 833.165 429.627 833.163 429.64C833.162 429.653 833.157 429.665 833.149 429.675L833.145 429.68L833.144 429.68ZM835.824 436.643L835.761 436.644C835.341 436.651 834.926 436.55 834.544 436.346C834.188 436.154 833.891 435.841 833.691 435.448C833.49 435.058 833.387 434.572 833.382 433.991L833.381 433.944C833.378 433.456 833.485 432.975 833.691 432.551C833.898 432.131 834.199 431.785 834.563 431.55L834.594 431.53C834.989 431.275 835.466 431.147 836.025 431.147L836.05 431.148L836.078 431.149L836.109 431.15L836.144 431.153L836.202 431.157L836.269 431.164L836.317 431.169V429.074C836.317 429.024 836.335 429 836.372 429H837.521C837.528 428.998 837.536 428.999 837.543 429.002C837.55 429.005 837.556 429.009 837.562 429.016C837.567 429.022 837.571 429.029 837.573 429.038C837.576 429.046 837.576 429.055 837.575 429.063V435.347C837.575 435.452 837.579 435.566 837.586 435.688L837.603 435.964L837.612 436.123C837.613 436.145 837.608 436.167 837.598 436.186C837.589 436.205 837.574 436.22 837.557 436.229C837.261 436.374 836.952 436.48 836.636 436.548C836.368 436.606 836.096 436.638 835.824 436.643V436.643ZM836.317 435.326V432.423C836.268 432.408 836.218 432.397 836.167 432.391C836.105 432.384 836.042 432.38 835.98 432.381C835.759 432.378 835.54 432.436 835.342 432.551C835.148 432.663 834.984 432.831 834.863 433.04C834.743 433.245 834.68 433.513 834.676 433.844L834.676 433.88C834.672 434.111 834.704 434.342 834.772 434.56C834.827 434.736 834.914 434.895 835.027 435.028C835.135 435.15 835.266 435.241 835.41 435.294C835.562 435.351 835.72 435.38 835.879 435.379C835.965 435.379 836.044 435.375 836.117 435.368C836.175 435.363 836.232 435.352 836.289 435.335L836.317 435.326V435.326Z" fill="black"/>
<path d="M723.624 336.445C724.693 335.729 725.759 335.007 726.831 334.299C727.849 333.626 729.046 334.246 729.277 335.555C729.41 336.312 729.121 337.13 728.535 337.528C726.613 338.834 724.689 340.135 722.755 341.416C722.156 341.812 721.54 341.739 720.994 341.253C720.44 340.76 720.265 340.08 720.395 339.288C720.544 338.686 720.883 338.283 721.346 337.981C722.112 337.483 722.865 336.958 723.624 336.445" fill="url(#paint19_linear_1_3)"/>
<path d="M724.409 335.925C723.343 335.203 722.274 334.488 721.212 333.759C720.203 333.067 720.065 331.548 720.922 330.66C721.417 330.147 722.169 330.031 722.758 330.423C724.689 331.711 726.617 333.004 728.535 334.317C729.129 334.723 729.383 335.383 729.295 336.176C729.206 336.982 728.788 337.499 728.135 337.764C727.613 337.915 727.144 337.774 726.689 337.457C725.936 336.932 725.169 336.434 724.409 335.925" fill="url(#paint20_linear_1_3)"/>
<path d="M714.693 335.414C714.009 335.868 713.325 336.32 712.641 336.775C712.242 337.04 711.846 337.315 711.444 337.577C710.635 338.104 709.673 337.795 709.214 336.867C708.776 335.981 709.028 334.833 709.807 334.302C711.714 333.005 713.625 331.717 715.543 330.443C716.131 330.052 716.741 330.101 717.285 330.568C717.86 331.061 718.047 331.755 717.919 332.568C717.839 332.765 717.791 332.995 717.671 333.15C717.476 333.403 717.255 333.644 717.008 333.821C716.246 334.37 715.466 334.886 714.693 335.414" fill="url(#paint21_linear_1_3)"/>
<path d="M713.909 335.922C714.587 336.386 715.265 336.851 715.945 337.314C716.342 337.585 716.744 337.847 717.139 338.122C717.935 338.676 718.187 339.801 717.727 340.729C717.288 341.614 716.31 341.934 715.526 341.412C713.609 340.136 711.697 338.85 709.792 337.55C709.208 337.151 708.939 336.51 709.014 335.727C709.093 334.901 709.514 334.364 710.182 334.088C710.368 334.07 710.563 334.003 710.738 334.046C711.023 334.117 711.313 334.22 711.568 334.38C712.357 334.876 713.13 335.406 713.909 335.922" fill="url(#paint22_linear_1_3)"/>
<path fill-rule="evenodd" clip-rule="evenodd" d="M127 395.295C123.134 395.295 120 399.211 120 404.041C120 408.871 123.134 412.788 127 412.788C130.866 412.788 134 408.871 134 404.041C134 399.211 130.866 395.295 127 395.295ZM127.082 409.156C124.825 409.156 122.998 406.868 122.998 404.041C122.998 401.215 124.825 398.926 127.082 398.926C128.184 398.926 129.106 399.434 129.813 400.259L128.661 401.701V401.698C128.233 401.186 127.689 400.924 127.082 400.924C125.734 400.924 124.639 402.35 124.639 404.038C124.639 405.726 125.734 407.156 127.082 407.156C128.304 407.156 129.136 406.28 129.308 405.077H127.082V403.082H130.923C130.974 403.425 131.002 403.782 131.002 404.156C131.002 407.079 129.44 409.156 127.082 409.156V409.156Z" fill="url(#paint23_linear_1_3)"/>
<path d="M31.2117 463.976H33.101V464.913H32.0017V465.851H33.101V466.788H31.2117V463.976ZM33.4784 463.976H35.3685V464.791H34.2692V464.954H35.3685V466.829H33.4784V465.973H34.5777V465.81H33.4784V463.976ZM35.7466 463.976H37.6352V464.791H36.5359V464.954H37.6352V466.829H35.7466V465.973H36.8459V465.81H35.7466V463.976Z" fill="url(#paint24_linear_1_3)"/>
<path fill-rule="evenodd" clip-rule="evenodd" d="M34.4935 484.308L29.4784 482.685L28 468.077H41L39.5223 482.683L34.4935 484.308ZM30.9228 474.69L31.0608 476.481H36.3886L36.2102 478.804L34.4957 479.344H34.4942L32.7826 478.805L32.6728 477.377H31.1294L31.3446 480.19L34.4935 481.209L37.6474 480.19L38.0317 475.17L38.0692 474.69L38.3466 471.063H30.6462L30.7863 472.855H36.6623L36.5222 474.69H30.9228V474.69Z" fill="url(#paint25_linear_1_3)"/>
<path d="M187.501 302.63H198.501V316.106H187.501V302.63ZM187 316.736H199V302H187V316.736ZM194.86 307.252C194.86 307.202 194.875 307.177 194.92 307.177H195.705C195.745 307.177 195.765 307.195 195.765 307.252V312.221C195.765 312.271 195.755 312.296 195.705 312.296H194.931C194.881 312.296 194.866 312.265 194.866 312.214V307.252H194.86H194.86ZM194.805 305.823C194.805 305.652 194.859 305.489 194.955 305.369C195.05 305.248 195.18 305.18 195.315 305.18C195.45 305.18 195.58 305.248 195.676 305.369C195.771 305.489 195.825 305.652 195.825 305.823C195.83 305.91 195.82 305.997 195.795 306.079C195.771 306.16 195.733 306.234 195.683 306.295C195.634 306.356 195.574 306.403 195.509 306.433C195.444 306.462 195.374 306.473 195.305 306.465C195.238 306.47 195.17 306.457 195.107 306.427C195.044 306.396 194.986 306.349 194.939 306.288C194.892 306.227 194.855 306.154 194.832 306.074C194.809 305.993 194.8 305.908 194.806 305.823H194.805ZM192.555 309.324C192.415 308.623 192.084 307.102 191.96 306.365H191.95C191.845 307.102 191.581 308.348 191.371 309.324H192.555ZM191.165 310.345L190.77 312.234C190.76 312.284 190.745 312.297 190.695 312.297H189.961C189.911 312.297 189.901 312.278 189.911 312.202L191.331 305.941C191.365 305.77 191.382 305.595 191.381 305.418C191.381 305.374 191.396 305.355 191.421 305.355H192.471C192.506 305.355 192.521 305.368 192.531 305.418L194.121 312.213C194.131 312.263 194.121 312.295 194.081 312.295H193.251C193.211 312.295 193.186 312.283 193.176 312.241L192.766 310.346H191.166L191.165 310.345Z" fill="url(#paint26_linear_1_3)"/>
<path fill-rule="evenodd" clip-rule="evenodd" d="M82 340.567C82 340.236 82.1107 339.918 82.3077 339.684C82.5047 339.45 82.7719 339.318 83.0505 339.318H93.5224C93.6604 339.318 93.7972 339.35 93.9248 339.413C94.0524 339.475 94.1684 339.567 94.2661 339.683C94.3638 339.799 94.4413 339.937 94.4941 340.089C94.5469 340.24 94.5741 340.403 94.574 340.567V353.014C94.5742 353.178 94.5471 353.341 94.4943 353.492C94.4416 353.644 94.3642 353.782 94.2665 353.898C94.1689 354.014 94.053 354.106 93.9254 354.169C93.7978 354.232 93.661 354.264 93.5229 354.264H83.0505C82.9125 354.264 82.7759 354.232 82.6484 354.169C82.5209 354.106 82.405 354.014 82.3075 353.898C82.2099 353.782 82.1326 353.644 82.0798 353.493C82.027 353.341 81.9999 353.179 82 353.015V340.567ZM86.977 345.017H88.6797V346.033C88.9254 345.449 89.5541 344.923 90.4989 344.923C92.3101 344.923 92.7393 346.087 92.7393 348.222V352.177H90.9064V348.708C90.9064 347.492 90.6606 346.806 90.0365 346.806C89.1706 346.806 88.8105 347.546 88.8105 348.708V352.177H86.977V345.017ZM83.8335 352.084H85.667V344.923H83.8335V352.083V352.084ZM85.9294 342.587C85.9328 342.774 85.9049 342.959 85.8472 343.133C85.7895 343.307 85.7032 343.465 85.5934 343.598C85.4836 343.732 85.3525 343.838 85.2078 343.91C85.063 343.982 84.9076 344.02 84.7506 344.02C84.5935 344.02 84.4381 343.982 84.2934 343.91C84.1486 343.838 84.0175 343.732 83.9077 343.598C83.7979 343.465 83.7116 343.307 83.6539 343.133C83.5962 342.959 83.5683 342.774 83.5718 342.587C83.5785 342.221 83.7057 341.873 83.926 341.616C84.1464 341.36 84.4423 341.217 84.7506 341.217C85.0588 341.217 85.3548 341.36 85.5751 341.616C85.7954 341.873 85.9226 342.221 85.9294 342.587V342.587Z" fill="url(#paint27_linear_1_3)"/>
<path d="M140.754 473.43L142.232 475.826L149.714 473.43M132.979 492.089L137.027 487.516L134.591 484.495M140.14 473.43L137.977 475.682L141.616 475.838M131.731 473.431L132.507 475.271L136.79 475.578M134.023 482.971L137.187 476.153L128 475.577M134.391 483.402L137.38 487.111L140.676 483.379L141.698 476.425L137.682 476.186L134.391 483.402Z" fill="url(#paint28_linear_1_3)"/>
<defs>
<linearGradient id="paint0_linear_1_3" x1="522.786" y1="0.5" x2="522.786" y2="278" gradientUnits="userSpaceOnUse">
<stop stop-color="#22C55E"/>
<stop offset="1" stop-color="#22C55E" stop-opacity="0"/>
</linearGradient>
<linearGradient id="paint1_linear_1_3" x1="487.256" y1="17.5" x2="487.256" y2="287.5" gradientUnits="userSpaceOnUse">
<stop stop-color="#22C55E"/>
<stop offset="1" stop-color="#22C55E" stop-opacity="0"/>
</linearGradient>
<linearGradient id="paint2_linear_1_3" x1="445.75" y1="33" x2="445.75" y2="304" gradientUnits="userSpaceOnUse">
<stop stop-color="#22C55E"/>
<stop offset="1" stop-color="#22C55E" stop-opacity="0"/>
</linearGradient>
<linearGradient id="paint3_linear_1_3" x1="367.252" y1="35" x2="367.252" y2="310.5" gradientUnits="userSpaceOnUse">
<stop stop-color="#22C55E"/>
<stop offset="1" stop-color="#22C55E" stop-opacity="0"/>
</linearGradient>
<linearGradient id="paint4_linear_1_3" x1="401.423" y1="33" x2="401.423" y2="320" gradientUnits="userSpaceOnUse">
<stop stop-color="#22C55E"/>
<stop offset="1" stop-color="#22C55E" stop-opacity="0"/>
</linearGradient>
<linearGradient id="paint5_linear_1_3" x1="437" y1="39" x2="437" y2="336" gradientUnits="userSpaceOnUse">
<stop stop-color="#22C55E"/>
<stop offset="1" stop-color="#22C55E" stop-opacity="0"/>
</linearGradient>
<radialGradient id="paint6_radial_1_3" cx="0" cy="0" r="1" gradientUnits="userSpaceOnUse" gradientTransform="translate(452 407) rotate(90) scale(165 271)">
<stop stop-color="#2BFD59"/>
<stop offset="1" stop-color="#40544E" stop-opacity="0"/>
</radialGradient>
<linearGradient id="paint7_linear_1_3" x1="440" y1="266" x2="440" y2="446" gradientUnits="userSpaceOnUse">
<stop stop-color="#10803D" stop-opacity="0.6"/>
<stop offset="1" stop-color="#70AD40" stop-opacity="0.36"/>
</linearGradient>
<linearGradient id="paint8_linear_1_3" x1="440.5" y1="275" x2="440.5" y2="544" gradientUnits="userSpaceOnUse">
<stop stop-opacity="0"/>
<stop offset="0.479167" stop-color="#22C55E"/>
</linearGradient>
<linearGradient id="paint9_linear_1_3" x1="445" y1="275" x2="445" y2="544" gradientUnits="userSpaceOnUse">
<stop stop-opacity="0"/>
<stop offset="0.479167" stop-color="#22C55E"/>
</linearGradient>
<linearGradient id="paint10_linear_1_3" x1="455.5" y1="275" x2="455.5" y2="544" gradientUnits="userSpaceOnUse">
<stop stop-opacity="0"/>
<stop offset="0.479167" stop-color="#2DFFB3"/>
</linearGradient>
<linearGradient id="paint11_linear_1_3" x1="445" y1="203" x2="445" y2="478" gradientUnits="userSpaceOnUse">
<stop offset="0.197917" stop-opacity="0"/>
<stop offset="1" stop-color="#7DC277"/>
</linearGradient>
<linearGradient id="paint12_linear_1_3" x1="444.5" y1="294" x2="444.5" y2="458" gradientUnits="userSpaceOnUse">
<stop offset="0.197917" stop-opacity="0"/>
<stop offset="1" stop-color="#87E386"/>
</linearGradient>
<linearGradient id="paint13_linear_1_3" x1="843.047" y1="353.312" x2="843.047" y2="374.18" gradientUnits="userSpaceOnUse">
<stop stop-color="#22C55E" stop-opacity="0.53"/>
<stop offset="1" stop-color="#22C55E"/>
</linearGradient>
<linearGradient id="paint14_linear_1_3" x1="843.042" y1="361.565" x2="843.042" y2="365.931" gradientUnits="userSpaceOnUse">
<stop stop-color="#22C55E" stop-opacity="0.53"/>
<stop offset="1" stop-color="#22C55E"/>
</linearGradient>
<linearGradient id="paint15_linear_1_3" x1="777.5" y1="322.991" x2="777.5" y2="338.152" gradientUnits="userSpaceOnUse">
<stop stop-color="#22C55E" stop-opacity="0.53"/>
<stop offset="1" stop-color="#22C55E"/>
</linearGradient>
<linearGradient id="paint16_linear_1_3" x1="887" y1="405.791" x2="887" y2="427.948" gradientUnits="userSpaceOnUse">
<stop stop-color="#22C55E" stop-opacity="0.53"/>
<stop offset="1" stop-color="#22C55E"/>
</linearGradient>
<linearGradient id="paint17_linear_1_3" x1="771.5" y1="493.254" x2="771.5" y2="512.496" gradientUnits="userSpaceOnUse">
<stop stop-color="#22C55E" stop-opacity="0.53"/>
<stop offset="1" stop-color="#22C55E"/>
</linearGradient>
<linearGradient id="paint18_linear_1_3" x1="832.795" y1="425.615" x2="832.795" y2="441.068" gradientUnits="userSpaceOnUse">
<stop stop-color="#22C55E" stop-opacity="0.53"/>
<stop offset="1" stop-color="#22C55E"/>
</linearGradient>
<linearGradient id="paint19_linear_1_3" x1="724.832" y1="334.025" x2="724.832" y2="341.671" gradientUnits="userSpaceOnUse">
<stop stop-color="#22C55E" stop-opacity="0.53"/>
<stop offset="1" stop-color="#22C55E"/>
</linearGradient>
<linearGradient id="paint20_linear_1_3" x1="724.835" y1="330.189" x2="724.835" y2="337.825" gradientUnits="userSpaceOnUse">
<stop stop-color="#22C55E" stop-opacity="0.53"/>
<stop offset="1" stop-color="#22C55E"/>
</linearGradient>
<linearGradient id="paint21_linear_1_3" x1="713.479" y1="330.181" x2="713.479" y2="337.833" gradientUnits="userSpaceOnUse">
<stop stop-color="#22C55E" stop-opacity="0.53"/>
<stop offset="1" stop-color="#22C55E"/>
</linearGradient>
<linearGradient id="paint22_linear_1_3" x1="713.479" y1="334.032" x2="713.479" y2="341.664" gradientUnits="userSpaceOnUse">
<stop stop-color="#22C55E" stop-opacity="0.53"/>
<stop offset="1" stop-color="#22C55E"/>
</linearGradient>
<linearGradient id="paint23_linear_1_3" x1="127" y1="395.295" x2="127" y2="412.788" gradientUnits="userSpaceOnUse">
<stop stop-color="#22C55E" stop-opacity="0.53"/>
<stop offset="1" stop-color="#22C55E"/>
</linearGradient>
<linearGradient id="paint24_linear_1_3" x1="34.4235" y1="463.976" x2="34.4235" y2="466.829" gradientUnits="userSpaceOnUse">
<stop stop-color="#22C55E" stop-opacity="0.53"/>
<stop offset="1" stop-color="#22C55E"/>
</linearGradient>
<linearGradient id="paint25_linear_1_3" x1="34.5" y1="468.077" x2="34.5" y2="484.308" gradientUnits="userSpaceOnUse">
<stop stop-color="#22C55E" stop-opacity="0.53"/>
<stop offset="1" stop-color="#22C55E"/>
</linearGradient>
<linearGradient id="paint26_linear_1_3" x1="193" y1="302" x2="193" y2="316.736" gradientUnits="userSpaceOnUse">
<stop stop-color="#22C55E" stop-opacity="0.53"/>
<stop offset="1" stop-color="#22C55E"/>
</linearGradient>
<linearGradient id="paint27_linear_1_3" x1="88.287" y1="339.318" x2="88.287" y2="354.264" gradientUnits="userSpaceOnUse">
<stop stop-color="#22C55E" stop-opacity="0.53"/>
<stop offset="1" stop-color="#22C55E"/>
</linearGradient>
<linearGradient id="paint28_linear_1_3" x1="138.857" y1="473.43" x2="138.857" y2="492.089" gradientUnits="userSpaceOnUse">
<stop stop-color="#22C55E" stop-opacity="0.53"/>
<stop offset="1" stop-color="#22C55E"/>
</linearGradient>
</defs>
</svg>
